<svg width="24" height="24" viewBox="0 0 24 24" xmlns="http://www.w3.org/2000/svg">
  <title>Echo Expedition Logo</title>
  <g>
    <path d="M21 2H5a2 2 0 00-2 2v10a2 2 0 002 2h12l4 4V4a2 2 0 00-2-2z" fill="#4285F4"/>
    <path d="M7 14s1.5-2 3-2 3 2 3 2l3-2.5s1.5 1.5 3 0v2H7v-2z" fill="#FFFFFF"/>
    <path d="M7 12l3-3 3 2 3-3" stroke="#FDD835" stroke-linecap="round" stroke-width="1.5" fill="none"/>
    <path d="M16 6a3 3 0 010 4M18 4a6 6 0 010 8" stroke="#FFFFFF" stroke-linecap="round" stroke-width="1.5" fill="none"/>
  </g>
</svg>